# xmcd
#
# Track frame offsets:
#	150
#	15967
#	33204
#	48947
#	68812
#	84505
#	102683
#	118273
#	129662
#	146755
#	166642
#	183096
#	196420
#	212212
#
# Disc length: 3073 seconds
#
# Revision: 1
# Processed by: cddbd v1.5.2PL0 Copyright (c) Steve Scherf et al.
# Submitted via: audiograbber 1.83.01
#
DISCID=be0bff0e
DTITLE=Hayes Carll - Trouble in Mind
DYEAR=2008
DGENRE=Country
TTITLE0=Drunken Poet's Dream
TTITLE1=It's A Shame
TTITLE2=Girl Downtown
TTITLE3=Bad Liver And A Broken Heart
TTITLE4=Beaumont
TTITLE5=I Got A Gig
TTITLE6=Faulkner Street
TTITLE7=Wild As A Turkey
TTITLE8=Don't Let Me Fall
TTITLE9=A Lover Like You
TTITLE10=I Don't Wanna Grow Up
TTITLE11=Knockin' Over Whiskeys
TTITLE12=Willing To Love Again
TTITLE13=She Left Me For Jesus
EXTD=
EXTT0=
EXTT1=
EXTT2=
EXTT3=
EXTT4=
EXTT5=
EXTT6=
EXTT7=
EXTT8=
EXTT9=
EXTT10=
EXTT11=
EXTT12=
EXTT13=
PLAYORDER=
